<svg width="467" height="307" viewBox="0 0 467 307" fill="none" xmlns="http://www.w3.org/2000/svg">
<path d="M232.096 92.4503L265.685 71.5595H280.637V218H264.047V89.1733L235.168 107.606L232.096 92.4503ZM329.422 218H313.856V132.184H296.447V117.642H313.856V103.101C313.856 76.8846 324.302 65.0055 347.445 65.0055C352.361 65.0055 358.3 65.8248 363.625 67.4633L361.577 81.8001C356.867 80.3664 352.566 79.5472 348.674 79.5472C335.566 79.5472 329.422 87.1252 329.422 103.101V117.642H358.3V132.184H329.422V218ZM410.777 220.048C382.923 220.048 362.646 198.133 362.646 167.821C362.646 137.304 382.103 115.594 409.753 115.594C437.198 115.594 456.86 137.099 456.86 167.207C456.86 169.869 456.655 172.122 456.45 174.17H378.417C381.079 193.013 393.982 205.506 410.777 205.506C423.68 205.506 433.101 200.181 441.704 187.688L453.992 195.676C444.776 211.651 429.824 220.048 410.777 220.048ZM378.622 160.243H440.884C439.246 142.22 426.752 130.136 409.753 130.136C393.368 130.136 381.079 142.22 378.622 160.243Z" fill="#130032"/>
<path d="M196.661 113.137C202.143 109.958 202.126 102.036 196.63 98.8816L108.601 48.3538C106.062 46.8963 102.939 46.8978 100.401 48.3577L12.3632 99.0018C6.87051 102.161 6.86057 110.083 12.3454 113.257L100.375 164.19C102.926 165.666 106.073 165.665 108.623 164.186L196.661 113.137Z" fill="url(#paint0_linear_42_595)"/>
<path d="M196.661 151.951C202.143 148.773 202.126 140.851 196.63 137.697L108.601 87.1687C106.062 85.7113 102.939 85.7127 100.401 87.1726L12.3632 137.817C6.87051 140.976 6.86057 148.898 12.3454 152.072L100.375 203.005C102.926 204.481 106.073 204.48 108.623 203.001L196.661 151.951Z" fill="url(#paint1_linear_42_595)"/>
<path d="M196.661 190.765C202.143 187.587 202.126 179.665 196.63 176.51L108.601 125.983C106.062 124.525 102.939 124.527 100.401 125.987L12.3632 176.631C6.87051 179.79 6.86057 187.712 12.3454 190.886L100.375 241.819C102.926 243.295 106.073 243.294 108.623 241.815L196.661 190.765Z" fill="url(#paint2_linear_42_595)"/>
<defs>
<linearGradient id="paint0_linear_42_595" x1="160.769" y1="149.696" x2="61.8961" y2="68.5077" gradientUnits="userSpaceOnUse">
<stop stop-color="#4C00FF"/>
<stop offset="1" stop-color="#4C00FF" stop-opacity="0.1"/>
</linearGradient>
<linearGradient id="paint1_linear_42_595" x1="160.769" y1="188.511" x2="61.8961" y2="107.323" gradientUnits="userSpaceOnUse">
<stop stop-color="#4C00FF"/>
<stop offset="1" stop-color="#4C00FF" stop-opacity="0.1"/>
</linearGradient>
<linearGradient id="paint2_linear_42_595" x1="160.769" y1="227.325" x2="61.8961" y2="146.137" gradientUnits="userSpaceOnUse">
<stop stop-color="#4C00FF"/>
<stop offset="1" stop-color="#4C00FF" stop-opacity="0.1"/>
</linearGradient>
</defs>
</svg>